# MagicaVoxel @ Ephtracy

# group
o 

# material
mtllib Room.mtl
usemtl palette

# normals
vn -1 0 0
vn 1 0 0
vn 0 0 1
vn 0 0 -1
vn 0 -1 0
vn 0 1 0

# texcoords
vt 0.369141 0.5
vt 0.962891 0.5
vt 0.994141 0.5

# verts
v 0.5 2 -0.2
v 0.5 2 -3.7
v 0.5 2.1 -1.4
v 0.5 2.1 -2.6
v 0.5 3.6 -1.4
v 0.5 3.6 -2.6
v 0.5 3.8 -0.2
v 0.5 3.8 -3.7
v 2.6 2.1 -0.2
v 2.6 2.1 -0.3
v 2.6 2.1 -3.6
v 2.6 2.1 -3.7
v 2.6 3.6 -0.2
v 2.6 3.6 -0.3
v 2.6 3.6 -3.6
v 2.6 3.6 -3.7
v 3.7 2.1 -0.3
v 3.7 2.1 -1.3
v 3.7 2.1 -1.4
v 3.7 2.1 -2.6
v 3.7 2.1 -2.7
v 3.7 2.1 -3.6
v 3.7 3.6 -1.4
v 3.7 3.6 -2.6
v 3.7 3.7 -0.3
v 3.7 3.7 -3.6
v 0.6 2.1 -0.3
v 0.6 2.1 -1.3
v 0.6 2.1 -1.4
v 0.6 2.1 -2.6
v 0.6 2.1 -2.7
v 0.6 2.1 -3.6
v 0.6 3.6 -1.4
v 0.6 3.6 -2.6
v 0.6 3.7 -0.3
v 0.6 3.7 -3.6
v 1.7 2.1 -0.2
v 1.7 2.1 -0.3
v 1.7 2.1 -3.6
v 1.7 2.1 -3.7
v 1.7 3.6 -0.2
v 1.7 3.6 -0.3
v 1.7 3.6 -3.6
v 1.7 3.6 -3.7
v 3.8 2 -0.2
v 3.8 2 -3.7
v 3.8 2.1 -1.4
v 3.8 2.1 -2.6
v 3.8 3.6 -1.4
v 3.8 3.6 -2.6
v 3.8 3.8 -0.2
v 3.8 3.8 -3.7
v 0.5 2 -0.2
v 0.5 3.8 -0.2
v 1.7 2.1 -0.2
v 1.7 3.6 -0.2
v 2.6 2.1 -0.2
v 2.6 3.6 -0.2
v 3.8 2 -0.2
v 3.8 3.8 -0.2
v 0.5 2.1 -2.6
v 0.5 3.6 -2.6
v 0.6 2.1 -2.6
v 0.6 3.6 -2.6
v 3.7 2.1 -2.6
v 3.7 3.6 -2.6
v 3.8 2.1 -2.6
v 3.8 3.6 -2.6
v 0.6 2.1 -3.6
v 0.6 3.7 -3.6
v 1.6 2.1 -3.6
v 1.7 2.1 -3.6
v 1.7 3.6 -3.6
v 2.6 2.1 -3.6
v 2.6 3.6 -3.6
v 2.7 2.1 -3.6
v 3.7 2.1 -3.6
v 3.7 3.7 -3.6
v 0.6 2.1 -0.3
v 0.6 3.7 -0.3
v 1.6 2.1 -0.3
v 1.7 2.1 -0.3
v 1.7 3.6 -0.3
v 2.6 2.1 -0.3
v 2.6 3.6 -0.3
v 2.7 2.1 -0.3
v 3.7 2.1 -0.3
v 3.7 3.7 -0.3
v 0.5 2.1 -1.4
v 0.5 3.6 -1.4
v 0.6 2.1 -1.4
v 0.6 3.6 -1.4
v 3.7 2.1 -1.4
v 3.7 3.6 -1.4
v 3.8 2.1 -1.4
v 3.8 3.6 -1.4
v 0.5 2 -3.7
v 0.5 3.8 -3.7
v 1.7 2.1 -3.7
v 1.7 3.6 -3.7
v 2.6 2.1 -3.7
v 2.6 3.6 -3.7
v 3.8 2 -3.7
v 3.8 3.8 -3.7
v 0.5 2 -0.2
v 3.8 2 -0.2
v 0.6 2 -0.3
v 1.6 2 -0.3
v 2.7 2 -0.3
v 3.7 2 -0.3
v 0.6 2 -1.3
v 1.6 2 -1.3
v 2.7 2 -1.3
v 3.7 2 -1.3
v 0.6 2 -2.7
v 1.6 2 -2.7
v 2.7 2 -2.7
v 3.7 2 -2.7
v 0.6 2 -3.6
v 1.6 2 -3.6
v 2.7 2 -3.6
v 3.7 2 -3.6
v 0.5 2 -3.7
v 3.8 2 -3.7
v 1.7 3.6 -0.2
v 2.6 3.6 -0.2
v 1.7 3.6 -0.3
v 2.6 3.6 -0.3
v 0.5 3.6 -1.4
v 0.6 3.6 -1.4
v 3.7 3.6 -1.4
v 3.8 3.6 -1.4
v 0.5 3.6 -2.6
v 0.6 3.6 -2.6
v 3.7 3.6 -2.6
v 3.8 3.6 -2.6
v 1.7 3.6 -3.6
v 2.6 3.6 -3.6
v 1.7 3.6 -3.7
v 2.6 3.6 -3.7
v 0.6 3.7 -0.3
v 3.7 3.7 -0.3
v 0.6 3.7 -3.6
v 3.7 3.7 -3.6
v 1.7 2.1 -0.2
v 2.6 2.1 -0.2
v 0.6 2.1 -0.3
v 1.6 2.1 -0.3
v 1.7 2.1 -0.3
v 2.6 2.1 -0.3
v 2.7 2.1 -0.3
v 3.7 2.1 -0.3
v 0.6 2.1 -1.3
v 1.6 2.1 -1.3
v 2.7 2.1 -1.3
v 3.7 2.1 -1.3
v 0.5 2.1 -1.4
v 0.6 2.1 -1.4
v 3.7 2.1 -1.4
v 3.8 2.1 -1.4
v 0.5 2.1 -2.6
v 0.6 2.1 -2.6
v 3.7 2.1 -2.6
v 3.8 2.1 -2.6
v 0.6 2.1 -2.7
v 1.6 2.1 -2.7
v 2.7 2.1 -2.7
v 3.7 2.1 -2.7
v 0.6 2.1 -3.6
v 1.6 2.1 -3.6
v 1.7 2.1 -3.6
v 2.6 2.1 -3.6
v 2.7 2.1 -3.6
v 3.7 2.1 -3.6
v 1.7 2.1 -3.7
v 2.6 2.1 -3.7
v 0.5 3.8 -0.2
v 3.8 3.8 -0.2
v 0.5 3.8 -3.7
v 3.8 3.8 -3.7

# faces
f 3/1/1 2/1/1 1/1/1
f 4/1/1 2/1/1 3/1/1
f 5/1/1 3/1/1 1/1/1
f 6/1/1 2/1/1 4/1/1
f 7/1/1 5/1/1 1/1/1
f 7/1/1 6/1/1 5/1/1
f 8/1/1 2/1/1 6/1/1
f 8/1/1 6/1/1 7/1/1
f 13/1/1 10/1/1 9/1/1
f 14/1/1 10/1/1 13/1/1
f 15/1/1 12/1/1 11/1/1
f 16/1/1 12/1/1 15/1/1
f 23/1/1 18/1/1 17/1/1
f 23/1/1 19/1/1 18/1/1
f 24/1/1 22/1/1 21/1/1
f 24/1/1 21/1/1 20/1/1
f 25/1/1 23/1/1 17/1/1
f 25/1/1 24/1/1 23/1/1
f 26/1/1 22/1/1 24/1/1
f 26/1/1 24/1/1 25/1/1
f 27/1/2 28/1/2 33/1/2
f 28/1/2 29/1/2 33/1/2
f 31/1/2 32/1/2 34/1/2
f 30/1/2 31/1/2 34/1/2
f 27/1/2 33/1/2 35/1/2
f 33/1/2 34/1/2 35/1/2
f 34/1/2 32/1/2 36/1/2
f 35/1/2 34/1/2 36/1/2
f 37/1/2 38/1/2 41/1/2
f 41/1/2 38/1/2 42/1/2
f 39/1/2 40/1/2 43/1/2
f 43/1/2 40/1/2 44/1/2
f 45/1/2 46/1/2 47/1/2
f 47/1/2 46/1/2 48/1/2
f 45/1/2 47/1/2 49/1/2
f 48/1/2 46/1/2 50/1/2
f 45/1/2 49/1/2 51/1/2
f 49/1/2 50/1/2 51/1/2
f 50/1/2 46/1/2 52/1/2
f 51/1/2 50/1/2 52/1/2
f 55/1/3 54/1/3 53/1/3
f 56/1/3 54/1/3 55/1/3
f 57/1/3 55/1/3 53/1/3
f 58/1/3 54/1/3 56/1/3
f 59/1/3 57/1/3 53/1/3
f 59/1/3 58/1/3 57/1/3
f 60/1/3 54/1/3 58/1/3
f 60/1/3 58/1/3 59/1/3
f 63/1/3 62/1/3 61/1/3
f 64/1/3 62/1/3 63/1/3
f 67/1/3 66/1/3 65/1/3
f 68/1/3 66/1/3 67/1/3
f 71/1/3 70/1/3 69/1/3
f 72/1/3 70/1/3 71/1/3
f 73/1/3 70/1/3 72/1/3
f 75/1/3 70/1/3 73/1/3
f 76/1/3 75/1/3 74/1/3
f 77/1/3 75/1/3 76/1/3
f 78/1/3 70/1/3 75/1/3
f 78/1/3 75/1/3 77/1/3
f 79/1/4 80/1/4 81/1/4
f 81/1/4 80/1/4 82/1/4
f 82/1/4 80/1/4 83/1/4
f 83/1/4 80/1/4 85/1/4
f 84/1/4 85/1/4 86/1/4
f 86/1/4 85/1/4 87/1/4
f 85/1/4 80/1/4 88/1/4
f 87/1/4 85/1/4 88/1/4
f 89/1/4 90/1/4 91/1/4
f 91/1/4 90/1/4 92/1/4
f 93/1/4 94/1/4 95/1/4
f 95/1/4 94/1/4 96/1/4
f 97/1/4 98/1/4 99/1/4
f 99/1/4 98/1/4 100/1/4
f 97/1/4 99/1/4 101/1/4
f 100/1/4 98/1/4 102/1/4
f 97/1/4 101/1/4 103/1/4
f 101/1/4 102/1/4 103/1/4
f 102/1/4 98/1/4 104/1/4
f 103/1/4 102/1/4 104/1/4
f 107/1/5 106/1/5 105/1/5
f 108/1/5 106/1/5 107/1/5
f 109/1/5 106/1/5 108/1/5
f 110/1/5 106/1/5 109/1/5
f 111/1/5 107/1/5 105/1/5
f 111/2/5 108/2/5 107/2/5
f 112/3/5 109/3/5 108/3/5
f 112/2/5 108/2/5 111/2/5
f 113/2/5 110/2/5 109/2/5
f 113/3/5 109/3/5 112/3/5
f 114/1/5 106/1/5 110/1/5
f 114/2/5 110/2/5 113/2/5
f 115/3/5 113/3/5 112/3/5
f 115/3/5 112/3/5 111/3/5
f 115/3/5 114/3/5 113/3/5
f 115/1/5 111/1/5 105/1/5
f 116/3/5 114/3/5 115/3/5
f 117/3/5 114/3/5 116/3/5
f 118/1/5 106/1/5 114/1/5
f 118/3/5 114/3/5 117/3/5
f 119/1/5 115/1/5 105/1/5
f 119/2/5 116/2/5 115/2/5
f 120/3/5 117/3/5 116/3/5
f 120/2/5 116/2/5 119/2/5
f 121/2/5 118/2/5 117/2/5
f 121/3/5 117/3/5 120/3/5
f 122/1/5 106/1/5 118/1/5
f 122/2/5 118/2/5 121/2/5
f 123/1/5 119/1/5 105/1/5
f 123/1/5 121/1/5 120/1/5
f 123/1/5 122/1/5 121/1/5
f 123/1/5 120/1/5 119/1/5
f 124/1/5 106/1/5 122/1/5
f 124/1/5 122/1/5 123/1/5
f 127/1/5 126/1/5 125/1/5
f 128/1/5 126/1/5 127/1/5
f 133/1/5 130/1/5 129/1/5
f 134/1/5 130/1/5 133/1/5
f 135/1/5 132/1/5 131/1/5
f 136/1/5 132/1/5 135/1/5
f 139/1/5 138/1/5 137/1/5
f 140/1/5 138/1/5 139/1/5
f 143/1/5 142/1/5 141/1/5
f 144/1/5 142/1/5 143/1/5
f 145/1/6 146/1/6 149/1/6
f 149/1/6 146/1/6 150/1/6
f 147/2/6 148/2/6 153/2/6
f 148/3/6 149/3/6 154/3/6
f 153/2/6 148/2/6 154/2/6
f 149/3/6 150/3/6 154/3/6
f 150/3/6 151/3/6 154/3/6
f 151/2/6 152/2/6 155/2/6
f 154/3/6 151/3/6 155/3/6
f 155/2/6 152/2/6 156/2/6
f 153/3/6 154/3/6 158/3/6
f 154/3/6 155/3/6 158/3/6
f 155/3/6 156/3/6 158/3/6
f 158/3/6 156/3/6 159/3/6
f 157/1/6 158/1/6 161/1/6
f 158/3/6 159/3/6 162/3/6
f 161/1/6 158/1/6 162/1/6
f 159/1/6 160/1/6 163/1/6
f 162/3/6 159/3/6 163/3/6
f 163/1/6 160/1/6 164/1/6
f 162/3/6 163/3/6 165/3/6
f 165/3/6 163/3/6 166/3/6
f 166/3/6 163/3/6 167/3/6
f 167/3/6 163/3/6 168/3/6
f 165/2/6 166/2/6 169/2/6
f 166/3/6 167/3/6 170/3/6
f 169/2/6 166/2/6 170/2/6
f 170/3/6 167/3/6 171/3/6
f 171/3/6 167/3/6 172/3/6
f 167/2/6 168/2/6 173/2/6
f 172/3/6 167/3/6 173/3/6
f 173/2/6 168/2/6 174/2/6
f 171/1/6 172/1/6 175/1/6
f 175/1/6 172/1/6 176/1/6
f 177/1/6 178/1/6 179/1/6
f 179/1/6 178/1/6 180/1/6
