# MagicaVoxel @ Ephtracy

# group
o 

# material
mtllib Treasure_Room.mtl
usemtl palette

# normals
vn -1 0 0
vn 1 0 0
vn 0 0 1
vn 0 0 -1
vn 0 -1 0
vn 0 1 0

# texcoords
vt 0.158203 0.5
vt 0.322266 0.5
vt 0.841797 0.5
vt 0.994141 0.5

# verts
v 0.4 2 -0.2
v 0.4 2 -1.4
v 0.4 2 -1.5
v 0.4 2 -2.4
v 0.4 2 -2.6
v 0.4 2 -3.8
v 0.4 2.1 -1.4
v 0.4 2.1 -1.5
v 0.4 2.1 -2.4
v 0.4 2.1 -2.6
v 0.4 3.5 -1.4
v 0.4 3.5 -2.6
v 0.4 3.8 -0.2
v 0.4 3.8 -3.8
v 2.6 2.1 -0.2
v 2.6 2.1 -0.3
v 2.6 2.1 -3.7
v 2.6 2.1 -3.8
v 2.6 3.5 -0.2
v 2.6 3.5 -0.3
v 2.6 3.5 -3.7
v 2.6 3.5 -3.8
v 3.7 2.1 -0.3
v 3.7 2.1 -1.4
v 3.7 2.1 -2.6
v 3.7 2.1 -3.7
v 3.7 3.5 -1.4
v 3.7 3.5 -2.6
v 3.7 3.7 -0.3
v 3.7 3.7 -3.7
v 0.5 2.1 -0.3
v 0.5 2.1 -1.3
v 0.5 2.1 -1.4
v 0.5 2.1 -2.6
v 0.5 2.1 -3.7
v 0.5 3.5 -1.4
v 0.5 3.5 -2.6
v 0.5 3.7 -0.3
v 0.5 3.7 -3.7
v 1.6 2.1 -0.2
v 1.6 2.1 -0.3
v 1.6 2.1 -3.7
v 1.6 2.1 -3.8
v 1.6 3.5 -0.2
v 1.6 3.5 -0.3
v 1.6 3.5 -3.7
v 1.6 3.5 -3.8
v 3.8 2 -0.2
v 3.8 2 -1.4
v 3.8 2 -2.6
v 3.8 2 -3.8
v 3.8 2.1 -1.4
v 3.8 2.1 -2.6
v 3.8 3.5 -1.4
v 3.8 3.5 -2.6
v 3.8 3.8 -0.2
v 3.8 3.8 -3.8
v 0.4 2 -0.2
v 0.4 3.8 -0.2
v 1.6 2 -0.2
v 1.6 2.1 -0.2
v 1.6 3.5 -0.2
v 2.6 2 -0.2
v 2.6 2.1 -0.2
v 2.6 3.5 -0.2
v 3.8 2 -0.2
v 3.8 3.8 -0.2
v 0.4 2.1 -2.6
v 0.4 3.5 -2.6
v 0.5 2.1 -2.6
v 0.5 3.5 -2.6
v 3.7 2.1 -2.6
v 3.7 3.5 -2.6
v 3.8 2.1 -2.6
v 3.8 3.5 -2.6
v 0.5 2.1 -3.7
v 0.5 3.7 -3.7
v 1.6 2.1 -3.7
v 1.6 3.5 -3.7
v 2.6 2.1 -3.7
v 2.6 3.5 -3.7
v 3.7 2.1 -3.7
v 3.7 3.7 -3.7
v 0.5 2.1 -0.3
v 0.5 3.7 -0.3
v 1.6 2.1 -0.3
v 1.6 3.5 -0.3
v 2.6 2.1 -0.3
v 2.6 3.5 -0.3
v 3.7 2.1 -0.3
v 3.7 3.7 -0.3
v 0.4 2.1 -1.4
v 0.4 3.5 -1.4
v 0.5 2.1 -1.4
v 0.5 3.5 -1.4
v 3.7 2.1 -1.4
v 3.7 3.5 -1.4
v 3.8 2.1 -1.4
v 3.8 3.5 -1.4
v 0.4 2 -3.8
v 0.4 3.8 -3.8
v 1.6 2 -3.8
v 1.6 2.1 -3.8
v 1.6 3.5 -3.8
v 2.6 2 -3.8
v 2.6 2.1 -3.8
v 2.6 3.5 -3.8
v 3.8 2 -3.8
v 3.8 3.8 -3.8
v 0.4 2 -0.2
v 1.6 2 -0.2
v 2.6 2 -0.2
v 3.8 2 -0.2
v 0.5 2 -0.3
v 1.6 2 -0.3
v 2.5 2 -0.3
v 2.6 2 -0.3
v 3.7 2 -0.3
v 1.4 2 -0.4
v 1.6 2 -0.4
v 2.5 2 -0.4
v 2.7 2 -0.4
v 1.2 2 -0.5
v 1.4 2 -0.5
v 2.7 2 -0.5
v 2.9 2 -0.5
v 1 2 -0.6
v 1.2 2 -0.6
v 2.9 2 -0.6
v 3.1 2 -0.6
v 0.9 2 -0.7
v 1 2 -0.7
v 3.1 2 -0.7
v 3.2 2 -0.7
v 0.8 2 -0.8
v 0.9 2 -0.8
v 3.2 2 -0.8
v 3.3 2 -0.8
v 0.7 2 -0.9
v 0.8 2 -0.9
v 3.3 2 -0.9
v 3.4 2 -0.9
v 0.6 2 -1.1
v 0.7 2 -1.1
v 3.4 2 -1.1
v 3.5 2 -1.1
v 0.5 2 -1.3
v 0.6 2 -1.3
v 3.5 2 -1.3
v 3.6 2 -1.3
v 0.4 2 -1.4
v 0.5 2 -1.4
v 3.7 2 -1.4
v 3.8 2 -1.4
v 0.4 2 -1.5
v 0.5 2 -1.5
v 3.6 2 -1.5
v 3.7 2 -1.5
v 2 2 -1.9
v 2.1 2 -1.9
v 2 2 -2
v 2.1 2 -2
v 0.4 2 -2.4
v 0.5 2 -2.4
v 3.6 2 -2.4
v 3.7 2 -2.4
v 0.4 2 -2.6
v 0.5 2 -2.6
v 0.6 2 -2.6
v 3.5 2 -2.6
v 3.6 2 -2.6
v 3.7 2 -2.6
v 3.8 2 -2.6
v 0.6 2 -2.8
v 0.7 2 -2.8
v 3.4 2 -2.8
v 3.5 2 -2.8
v 0.7 2 -3
v 0.8 2 -3
v 3.3 2 -3
v 3.4 2 -3
v 0.8 2 -3.1
v 0.9 2 -3.1
v 3.2 2 -3.1
v 3.3 2 -3.1
v 0.9 2 -3.2
v 1 2 -3.2
v 3.1 2 -3.2
v 3.2 2 -3.2
v 1 2 -3.3
v 1.2 2 -3.3
v 2.9 2 -3.3
v 3.1 2 -3.3
v 1.2 2 -3.4
v 1.4 2 -3.4
v 2.7 2 -3.4
v 2.9 2 -3.4
v 1.4 2 -3.5
v 1.6 2 -3.5
v 2.5 2 -3.5
v 2.7 2 -3.5
v 1.6 2 -3.6
v 2.5 2 -3.6
v 0.5 2 -3.7
v 1.6 2 -3.7
v 2.6 2 -3.7
v 3.7 2 -3.7
v 0.4 2 -3.8
v 1.6 2 -3.8
v 2.6 2 -3.8
v 3.8 2 -3.8
v 1.6 3.5 -0.2
v 2.6 3.5 -0.2
v 1.6 3.5 -0.3
v 2.6 3.5 -0.3
v 0.4 3.5 -1.4
v 0.5 3.5 -1.4
v 3.7 3.5 -1.4
v 3.8 3.5 -1.4
v 0.4 3.5 -2.6
v 0.5 3.5 -2.6
v 3.7 3.5 -2.6
v 3.8 3.5 -2.6
v 1.6 3.5 -3.7
v 2.6 3.5 -3.7
v 1.6 3.5 -3.8
v 2.6 3.5 -3.8
v 0.5 3.7 -0.3
v 3.7 3.7 -0.3
v 0.5 3.7 -3.7
v 3.7 3.7 -3.7
v 1.6 2.1 -0.2
v 2.6 2.1 -0.2
v 0.5 2.1 -0.3
v 1.6 2.1 -0.3
v 2.5 2.1 -0.3
v 2.6 2.1 -0.3
v 3.7 2.1 -0.3
v 1.4 2.1 -0.4
v 1.6 2.1 -0.4
v 2.5 2.1 -0.4
v 2.7 2.1 -0.4
v 1.2 2.1 -0.5
v 1.4 2.1 -0.5
v 2.7 2.1 -0.5
v 2.9 2.1 -0.5
v 1 2.1 -0.6
v 1.2 2.1 -0.6
v 2.9 2.1 -0.6
v 3.1 2.1 -0.6
v 0.9 2.1 -0.7
v 1 2.1 -0.7
v 3.1 2.1 -0.7
v 3.2 2.1 -0.7
v 0.8 2.1 -0.8
v 0.9 2.1 -0.8
v 3.2 2.1 -0.8
v 3.3 2.1 -0.8
v 0.7 2.1 -0.9
v 0.8 2.1 -0.9
v 3.3 2.1 -0.9
v 3.4 2.1 -0.9
v 0.6 2.1 -1.1
v 0.7 2.1 -1.1
v 3.4 2.1 -1.1
v 3.5 2.1 -1.1
v 0.5 2.1 -1.3
v 0.6 2.1 -1.3
v 3.5 2.1 -1.3
v 3.6 2.1 -1.3
v 0.4 2.1 -1.4
v 0.5 2.1 -1.4
v 3.7 2.1 -1.4
v 3.8 2.1 -1.4
v 0.4 2.1 -1.5
v 0.5 2.1 -1.5
v 3.6 2.1 -1.5
v 3.7 2.1 -1.5
v 2 2.1 -1.9
v 2.1 2.1 -1.9
v 2 2.1 -2
v 2.1 2.1 -2
v 0.4 2.1 -2.4
v 0.5 2.1 -2.4
v 3.6 2.1 -2.4
v 3.7 2.1 -2.4
v 0.4 2.1 -2.6
v 0.5 2.1 -2.6
v 0.6 2.1 -2.6
v 3.5 2.1 -2.6
v 3.6 2.1 -2.6
v 3.7 2.1 -2.6
v 3.8 2.1 -2.6
v 0.6 2.1 -2.8
v 0.7 2.1 -2.8
v 3.4 2.1 -2.8
v 3.5 2.1 -2.8
v 0.7 2.1 -3
v 0.8 2.1 -3
v 3.3 2.1 -3
v 3.4 2.1 -3
v 0.8 2.1 -3.1
v 0.9 2.1 -3.1
v 3.2 2.1 -3.1
v 3.3 2.1 -3.1
v 0.9 2.1 -3.2
v 1 2.1 -3.2
v 3.1 2.1 -3.2
v 3.2 2.1 -3.2
v 1 2.1 -3.3
v 1.2 2.1 -3.3
v 2.9 2.1 -3.3
v 3.1 2.1 -3.3
v 1.2 2.1 -3.4
v 1.4 2.1 -3.4
v 2.7 2.1 -3.4
v 2.9 2.1 -3.4
v 1.4 2.1 -3.5
v 1.6 2.1 -3.5
v 2.5 2.1 -3.5
v 2.7 2.1 -3.5
v 1.6 2.1 -3.6
v 2.5 2.1 -3.6
v 0.5 2.1 -3.7
v 1.6 2.1 -3.7
v 2.6 2.1 -3.7
v 3.7 2.1 -3.7
v 1.6 2.1 -3.8
v 2.6 2.1 -3.8
v 0.4 3.8 -0.2
v 3.8 3.8 -0.2
v 0.4 3.8 -3.8
v 3.8 3.8 -3.8

# faces
f 7/1/1 2/1/1 1/1/1
f 7/4/1 3/4/1 2/4/1
f 8/3/1 4/3/1 3/3/1
f 8/4/1 3/4/1 7/4/1
f 9/4/1 5/4/1 4/4/1
f 9/3/1 4/3/1 8/3/1
f 10/1/1 6/1/1 5/1/1
f 10/4/1 5/4/1 9/4/1
f 11/1/1 7/1/1 1/1/1
f 12/1/1 6/1/1 10/1/1
f 13/1/1 11/1/1 1/1/1
f 13/1/1 12/1/1 11/1/1
f 14/1/1 6/1/1 12/1/1
f 14/1/1 12/1/1 13/1/1
f 19/1/1 16/1/1 15/1/1
f 20/1/1 16/1/1 19/1/1
f 21/1/1 18/1/1 17/1/1
f 22/1/1 18/1/1 21/1/1
f 27/1/1 24/1/1 23/1/1
f 28/1/1 26/1/1 25/1/1
f 29/1/1 27/1/1 23/1/1
f 29/1/1 28/1/1 27/1/1
f 30/1/1 26/1/1 28/1/1
f 30/1/1 28/1/1 29/1/1
f 31/1/2 32/1/2 36/1/2
f 32/1/2 33/1/2 36/1/2
f 34/1/2 35/1/2 37/1/2
f 31/1/2 36/1/2 38/1/2
f 36/1/2 37/1/2 38/1/2
f 37/1/2 35/1/2 39/1/2
f 38/1/2 37/1/2 39/1/2
f 40/1/2 41/1/2 44/1/2
f 44/1/2 41/1/2 45/1/2
f 42/1/2 43/1/2 46/1/2
f 46/1/2 43/1/2 47/1/2
f 48/1/2 49/1/2 52/1/2
f 49/4/2 50/4/2 52/4/2
f 50/1/2 51/1/2 53/1/2
f 52/4/2 50/4/2 53/4/2
f 48/1/2 52/1/2 54/1/2
f 53/1/2 51/1/2 55/1/2
f 48/1/2 54/1/2 56/1/2
f 54/1/2 55/1/2 56/1/2
f 55/1/2 51/1/2 57/1/2
f 56/1/2 55/1/2 57/1/2
f 60/1/3 59/1/3 58/1/3
f 61/1/3 59/1/3 60/1/3
f 62/1/3 59/1/3 61/1/3
f 63/4/3 61/4/3 60/4/3
f 64/4/3 61/4/3 63/4/3
f 65/1/3 59/1/3 62/1/3
f 66/1/3 64/1/3 63/1/3
f 66/1/3 65/1/3 64/1/3
f 67/1/3 59/1/3 65/1/3
f 67/1/3 65/1/3 66/1/3
f 70/1/3 69/1/3 68/1/3
f 71/1/3 69/1/3 70/1/3
f 74/1/3 73/1/3 72/1/3
f 75/1/3 73/1/3 74/1/3
f 78/1/3 77/1/3 76/1/3
f 79/1/3 77/1/3 78/1/3
f 81/1/3 77/1/3 79/1/3
f 82/1/3 81/1/3 80/1/3
f 83/1/3 77/1/3 81/1/3
f 83/1/3 81/1/3 82/1/3
f 84/1/4 85/1/4 86/1/4
f 86/1/4 85/1/4 87/1/4
f 87/1/4 85/1/4 89/1/4
f 88/1/4 89/1/4 90/1/4
f 89/1/4 85/1/4 91/1/4
f 90/1/4 89/1/4 91/1/4
f 92/1/4 93/1/4 94/1/4
f 94/1/4 93/1/4 95/1/4
f 96/1/4 97/1/4 98/1/4
f 98/1/4 97/1/4 99/1/4
f 100/1/4 101/1/4 102/1/4
f 102/1/4 101/1/4 103/1/4
f 103/1/4 101/1/4 104/1/4
f 102/4/4 103/4/4 105/4/4
f 105/4/4 103/4/4 106/4/4
f 104/1/4 101/1/4 107/1/4
f 105/1/4 106/1/4 108/1/4
f 106/1/4 107/1/4 108/1/4
f 107/1/4 101/1/4 109/1/4
f 108/1/4 107/1/4 109/1/4
f 114/1/5 111/1/5 110/1/5
f 115/4/5 112/4/5 111/4/5
f 115/1/5 111/1/5 114/1/5
f 116/4/5 112/4/5 115/4/5
f 117/1/5 113/1/5 112/1/5
f 117/4/5 112/4/5 116/4/5
f 118/1/5 113/1/5 117/1/5
f 119/4/5 115/4/5 114/4/5
f 120/3/5 116/3/5 115/3/5
f 120/4/5 115/4/5 119/4/5
f 121/4/5 117/4/5 116/4/5
f 121/3/5 116/3/5 120/3/5
f 121/4/5 118/4/5 117/4/5
f 122/4/5 118/4/5 121/4/5
f 123/4/5 119/4/5 114/4/5
f 124/3/5 120/3/5 119/3/5
f 124/4/5 119/4/5 123/4/5
f 124/3/5 121/3/5 120/3/5
f 124/3/5 122/3/5 121/3/5
f 125/4/5 118/4/5 122/4/5
f 125/3/5 122/3/5 124/3/5
f 126/4/5 118/4/5 125/4/5
f 127/4/5 123/4/5 114/4/5
f 128/3/5 124/3/5 123/3/5
f 128/4/5 123/4/5 127/4/5
f 128/3/5 125/3/5 124/3/5
f 128/3/5 126/3/5 125/3/5
f 129/4/5 118/4/5 126/4/5
f 129/3/5 126/3/5 128/3/5
f 130/4/5 118/4/5 129/4/5
f 131/4/5 127/4/5 114/4/5
f 132/3/5 128/3/5 127/3/5
f 132/4/5 127/4/5 131/4/5
f 132/3/5 129/3/5 128/3/5
f 132/3/5 130/3/5 129/3/5
f 133/4/5 118/4/5 130/4/5
f 133/3/5 130/3/5 132/3/5
f 134/4/5 118/4/5 133/4/5
f 135/4/5 131/4/5 114/4/5
f 136/3/5 132/3/5 131/3/5
f 136/4/5 131/4/5 135/4/5
f 136/3/5 133/3/5 132/3/5
f 136/3/5 134/3/5 133/3/5
f 137/4/5 118/4/5 134/4/5
f 137/3/5 134/3/5 136/3/5
f 138/4/5 118/4/5 137/4/5
f 139/4/5 135/4/5 114/4/5
f 140/3/5 136/3/5 135/3/5
f 140/4/5 135/4/5 139/4/5
f 140/3/5 137/3/5 136/3/5
f 140/3/5 138/3/5 137/3/5
f 141/4/5 118/4/5 138/4/5
f 141/3/5 138/3/5 140/3/5
f 142/4/5 118/4/5 141/4/5
f 143/4/5 139/4/5 114/4/5
f 144/3/5 140/3/5 139/3/5
f 144/4/5 139/4/5 143/4/5
f 144/3/5 141/3/5 140/3/5
f 144/3/5 142/3/5 141/3/5
f 145/4/5 118/4/5 142/4/5
f 145/3/5 142/3/5 144/3/5
f 146/4/5 118/4/5 145/4/5
f 147/4/5 143/4/5 114/4/5
f 147/1/5 114/1/5 110/1/5
f 148/3/5 146/3/5 145/3/5
f 148/4/5 143/4/5 147/4/5
f 148/3/5 144/3/5 143/3/5
f 148/3/5 145/3/5 144/3/5
f 149/4/5 118/4/5 146/4/5
f 149/3/5 146/3/5 148/3/5
f 150/4/5 118/4/5 149/4/5
f 151/1/5 147/1/5 110/1/5
f 152/3/5 148/3/5 147/3/5
f 152/1/5 147/1/5 151/1/5
f 152/3/5 149/3/5 148/3/5
f 152/3/5 150/3/5 149/3/5
f 153/4/5 118/4/5 150/4/5
f 153/1/5 113/1/5 118/1/5
f 154/1/5 113/1/5 153/1/5
f 155/4/5 152/4/5 151/4/5
f 156/3/5 150/3/5 152/3/5
f 156/4/5 152/4/5 155/4/5
f 157/4/5 153/4/5 150/4/5
f 157/3/5 150/3/5 156/3/5
f 157/4/5 154/4/5 153/4/5
f 158/4/5 154/4/5 157/4/5
f 159/3/5 156/3/5 155/3/5
f 159/3/5 157/3/5 156/3/5
f 159/3/5 158/3/5 157/3/5
f 160/3/5 158/3/5 159/3/5
f 161/3/5 159/3/5 155/3/5
f 161/2/5 160/2/5 159/2/5
f 162/3/5 158/3/5 160/3/5
f 162/2/5 160/2/5 161/2/5
f 163/3/5 161/3/5 155/3/5
f 163/3/5 162/3/5 161/3/5
f 164/3/5 162/3/5 163/3/5
f 165/3/5 158/3/5 162/3/5
f 165/3/5 162/3/5 164/3/5
f 166/4/5 154/4/5 158/4/5
f 166/3/5 158/3/5 165/3/5
f 167/4/5 164/4/5 163/4/5
f 168/3/5 165/3/5 164/3/5
f 168/4/5 164/4/5 167/4/5
f 169/3/5 165/3/5 168/3/5
f 170/3/5 165/3/5 169/3/5
f 171/4/5 166/4/5 165/4/5
f 171/3/5 165/3/5 170/3/5
f 172/4/5 154/4/5 166/4/5
f 172/4/5 166/4/5 171/4/5
f 173/4/5 154/4/5 172/4/5
f 174/3/5 170/3/5 169/3/5
f 174/4/5 169/4/5 168/4/5
f 175/3/5 170/3/5 174/3/5
f 176/3/5 170/3/5 175/3/5
f 177/4/5 171/4/5 170/4/5
f 177/3/5 170/3/5 176/3/5
f 177/4/5 172/4/5 171/4/5
f 178/3/5 176/3/5 175/3/5
f 178/4/5 175/4/5 174/4/5
f 179/3/5 176/3/5 178/3/5
f 180/3/5 176/3/5 179/3/5
f 181/4/5 177/4/5 176/4/5
f 181/3/5 176/3/5 180/3/5
f 182/3/5 180/3/5 179/3/5
f 182/4/5 179/4/5 178/4/5
f 183/3/5 180/3/5 182/3/5
f 184/3/5 180/3/5 183/3/5
f 185/4/5 181/4/5 180/4/5
f 185/3/5 180/3/5 184/3/5
f 186/3/5 184/3/5 183/3/5
f 186/4/5 183/4/5 182/4/5
f 187/3/5 184/3/5 186/3/5
f 188/3/5 184/3/5 187/3/5
f 189/4/5 185/4/5 184/4/5
f 189/3/5 184/3/5 188/3/5
f 190/3/5 188/3/5 187/3/5
f 190/4/5 187/4/5 186/4/5
f 191/3/5 188/3/5 190/3/5
f 192/3/5 188/3/5 191/3/5
f 193/4/5 189/4/5 188/4/5
f 193/3/5 188/3/5 192/3/5
f 194/3/5 192/3/5 191/3/5
f 194/4/5 191/4/5 190/4/5
f 195/3/5 192/3/5 194/3/5
f 196/3/5 192/3/5 195/3/5
f 197/4/5 193/4/5 192/4/5
f 197/3/5 192/3/5 196/3/5
f 198/3/5 196/3/5 195/3/5
f 198/4/5 195/4/5 194/4/5
f 199/3/5 196/3/5 198/3/5
f 200/3/5 196/3/5 199/3/5
f 201/4/5 197/4/5 196/4/5
f 201/3/5 196/3/5 200/3/5
f 202/3/5 200/3/5 199/3/5
f 202/4/5 199/4/5 198/4/5
f 203/4/5 201/4/5 200/4/5
f 203/3/5 200/3/5 202/3/5
f 204/1/5 168/1/5 167/1/5
f 204/4/5 174/4/5 168/4/5
f 204/4/5 203/4/5 202/4/5
f 204/4/5 202/4/5 198/4/5
f 204/4/5 198/4/5 194/4/5
f 204/4/5 178/4/5 174/4/5
f 204/4/5 194/4/5 190/4/5
f 204/4/5 182/4/5 178/4/5
f 204/4/5 190/4/5 186/4/5
f 204/4/5 186/4/5 182/4/5
f 205/4/5 203/4/5 204/4/5
f 206/4/5 201/4/5 203/4/5
f 206/4/5 203/4/5 205/4/5
f 207/4/5 172/4/5 177/4/5
f 207/4/5 201/4/5 206/4/5
f 207/1/5 173/1/5 172/1/5
f 207/4/5 177/4/5 181/4/5
f 207/4/5 185/4/5 189/4/5
f 207/4/5 189/4/5 193/4/5
f 207/4/5 181/4/5 185/4/5
f 207/4/5 193/4/5 197/4/5
f 207/4/5 197/4/5 201/4/5
f 208/1/5 205/1/5 204/1/5
f 208/1/5 204/1/5 167/1/5
f 209/4/5 206/4/5 205/4/5
f 209/1/5 205/1/5 208/1/5
f 210/1/5 207/1/5 206/1/5
f 210/4/5 206/4/5 209/4/5
f 211/1/5 173/1/5 207/1/5
f 211/1/5 207/1/5 210/1/5
f 214/1/5 213/1/5 212/1/5
f 215/1/5 213/1/5 214/1/5
f 220/1/5 217/1/5 216/1/5
f 221/1/5 217/1/5 220/1/5
f 222/1/5 219/1/5 218/1/5
f 223/1/5 219/1/5 222/1/5
f 226/1/5 225/1/5 224/1/5
f 227/1/5 225/1/5 226/1/5
f 230/1/5 229/1/5 228/1/5
f 231/1/5 229/1/5 230/1/5
f 232/4/6 233/4/6 235/4/6
f 235/4/6 233/4/6 236/4/6
f 236/4/6 233/4/6 237/4/6
f 234/4/6 235/4/6 239/4/6
f 235/3/6 236/3/6 240/3/6
f 239/4/6 235/4/6 240/4/6
f 237/4/6 238/4/6 241/4/6
f 240/3/6 236/3/6 241/3/6
f 236/4/6 237/4/6 241/4/6
f 241/4/6 238/4/6 242/4/6
f 234/4/6 239/4/6 243/4/6
f 239/3/6 240/3/6 244/3/6
f 243/4/6 239/4/6 244/4/6
f 240/3/6 241/3/6 244/3/6
f 241/3/6 242/3/6 244/3/6
f 242/4/6 238/4/6 245/4/6
f 244/3/6 242/3/6 245/3/6
f 245/4/6 238/4/6 246/4/6
f 234/4/6 243/4/6 247/4/6
f 243/3/6 244/3/6 248/3/6
f 247/4/6 243/4/6 248/4/6
f 244/3/6 245/3/6 248/3/6
f 245/3/6 246/3/6 248/3/6
f 246/4/6 238/4/6 249/4/6
f 248/3/6 246/3/6 249/3/6
f 249/4/6 238/4/6 250/4/6
f 234/4/6 247/4/6 251/4/6
f 247/3/6 248/3/6 252/3/6
f 251/4/6 247/4/6 252/4/6
f 248/3/6 249/3/6 252/3/6
f 249/3/6 250/3/6 252/3/6
f 250/4/6 238/4/6 253/4/6
f 252/3/6 250/3/6 253/3/6
f 253/4/6 238/4/6 254/4/6
f 234/4/6 251/4/6 255/4/6
f 251/3/6 252/3/6 256/3/6
f 255/4/6 251/4/6 256/4/6
f 252/3/6 253/3/6 256/3/6
f 253/3/6 254/3/6 256/3/6
f 254/4/6 238/4/6 257/4/6
f 256/3/6 254/3/6 257/3/6
f 257/4/6 238/4/6 258/4/6
f 234/4/6 255/4/6 259/4/6
f 255/3/6 256/3/6 260/3/6
f 259/4/6 255/4/6 260/4/6
f 256/3/6 257/3/6 260/3/6
f 257/3/6 258/3/6 260/3/6
f 258/4/6 238/4/6 261/4/6
f 260/3/6 258/3/6 261/3/6
f 261/4/6 238/4/6 262/4/6
f 234/4/6 259/4/6 263/4/6
f 259/3/6 260/3/6 264/3/6
f 263/4/6 259/4/6 264/4/6
f 260/3/6 261/3/6 264/3/6
f 261/3/6 262/3/6 264/3/6
f 262/4/6 238/4/6 265/4/6
f 264/3/6 262/3/6 265/3/6
f 265/4/6 238/4/6 266/4/6
f 234/4/6 263/4/6 267/4/6
f 263/3/6 264/3/6 268/3/6
f 267/4/6 263/4/6 268/4/6
f 264/3/6 265/3/6 268/3/6
f 265/3/6 266/3/6 268/3/6
f 266/4/6 238/4/6 269/4/6
f 268/3/6 266/3/6 269/3/6
f 269/4/6 238/4/6 270/4/6
f 267/3/6 268/3/6 272/3/6
f 268/3/6 269/3/6 272/3/6
f 269/3/6 270/3/6 272/3/6
f 270/4/6 238/4/6 273/4/6
f 271/4/6 272/4/6 275/4/6
f 272/3/6 270/3/6 276/3/6
f 275/4/6 272/4/6 276/4/6
f 273/4/6 274/4/6 277/4/6
f 276/3/6 270/3/6 277/3/6
f 270/4/6 273/4/6 277/4/6
f 277/4/6 274/4/6 278/4/6
f 275/3/6 276/3/6 279/3/6
f 276/3/6 277/3/6 279/3/6
f 277/3/6 278/3/6 279/3/6
f 279/3/6 278/3/6 280/3/6
f 275/3/6 279/3/6 281/3/6
f 279/2/6 280/2/6 281/2/6
f 280/3/6 278/3/6 282/3/6
f 281/2/6 280/2/6 282/2/6
f 275/3/6 281/3/6 283/3/6
f 281/3/6 282/3/6 283/3/6
f 283/3/6 282/3/6 284/3/6
f 282/3/6 278/3/6 285/3/6
f 284/3/6 282/3/6 285/3/6
f 278/4/6 274/4/6 286/4/6
f 285/3/6 278/3/6 286/3/6
f 283/4/6 284/4/6 287/4/6
f 284/3/6 285/3/6 288/3/6
f 287/4/6 284/4/6 288/4/6
f 288/3/6 285/3/6 289/3/6
f 289/3/6 285/3/6 290/3/6
f 285/4/6 286/4/6 291/4/6
f 290/3/6 285/3/6 291/3/6
f 286/4/6 274/4/6 292/4/6
f 291/4/6 286/4/6 292/4/6
f 292/4/6 274/4/6 293/4/6
f 289/3/6 290/3/6 294/3/6
f 288/4/6 289/4/6 294/4/6
f 294/3/6 290/3/6 295/3/6
f 295/3/6 290/3/6 296/3/6
f 290/4/6 291/4/6 297/4/6
f 296/3/6 290/3/6 297/3/6
f 291/4/6 292/4/6 297/4/6
f 295/3/6 296/3/6 298/3/6
f 294/4/6 295/4/6 298/4/6
f 298/3/6 296/3/6 299/3/6
f 299/3/6 296/3/6 300/3/6
f 296/4/6 297/4/6 301/4/6
f 300/3/6 296/3/6 301/3/6
f 299/3/6 300/3/6 302/3/6
f 298/4/6 299/4/6 302/4/6
f 302/3/6 300/3/6 303/3/6
f 303/3/6 300/3/6 304/3/6
f 300/4/6 301/4/6 305/4/6
f 304/3/6 300/3/6 305/3/6
f 303/3/6 304/3/6 306/3/6
f 302/4/6 303/4/6 306/4/6
f 306/3/6 304/3/6 307/3/6
f 307/3/6 304/3/6 308/3/6
f 304/4/6 305/4/6 309/4/6
f 308/3/6 304/3/6 309/3/6
f 307/3/6 308/3/6 310/3/6
f 306/4/6 307/4/6 310/4/6
f 310/3/6 308/3/6 311/3/6
f 311/3/6 308/3/6 312/3/6
f 308/4/6 309/4/6 313/4/6
f 312/3/6 308/3/6 313/3/6
f 311/3/6 312/3/6 314/3/6
f 310/4/6 311/4/6 314/4/6
f 314/3/6 312/3/6 315/3/6
f 315/3/6 312/3/6 316/3/6
f 312/4/6 313/4/6 317/4/6
f 316/3/6 312/3/6 317/3/6
f 315/3/6 316/3/6 318/3/6
f 314/4/6 315/4/6 318/4/6
f 318/3/6 316/3/6 319/3/6
f 319/3/6 316/3/6 320/3/6
f 316/4/6 317/4/6 321/4/6
f 320/3/6 316/3/6 321/3/6
f 319/3/6 320/3/6 322/3/6
f 318/4/6 319/4/6 322/4/6
f 320/4/6 321/4/6 323/4/6
f 322/3/6 320/3/6 323/3/6
f 288/4/6 294/4/6 324/4/6
f 294/4/6 298/4/6 324/4/6
f 322/4/6 323/4/6 324/4/6
f 318/4/6 322/4/6 324/4/6
f 314/4/6 318/4/6 324/4/6
f 298/4/6 302/4/6 324/4/6
f 310/4/6 314/4/6 324/4/6
f 302/4/6 306/4/6 324/4/6
f 306/4/6 310/4/6 324/4/6
f 324/4/6 323/4/6 325/4/6
f 323/4/6 321/4/6 326/4/6
f 325/4/6 323/4/6 326/4/6
f 297/4/6 292/4/6 327/4/6
f 326/4/6 321/4/6 327/4/6
f 301/4/6 297/4/6 327/4/6
f 321/4/6 317/4/6 327/4/6
f 313/4/6 309/4/6 327/4/6
f 309/4/6 305/4/6 327/4/6
f 317/4/6 313/4/6 327/4/6
f 305/4/6 301/4/6 327/4/6
f 325/4/6 326/4/6 328/4/6
f 328/4/6 326/4/6 329/4/6
f 330/1/6 331/1/6 332/1/6
f 332/1/6 331/1/6 333/1/6
